Coordinates
version=1
nRows=12
nColumns=24
inDegrees=yes

Units are S.I. units (second, meters, Newtons, ...)
Angles are in degrees.

endheader
time	pelvis_tilt	pelvis_list	pelvis_rotation	pelvis_tx	pelvis_ty	pelvis_tz	hip_flexion_r	hip_adduction_r	hip_rotation_r	knee_angle_r	ankle_angle_r	subtalar_angle_r	mtp_angle_r	hip_flexion_l	hip_adduction_l	hip_rotation_l	knee_angle_l	ankle_angle_l	subtalar_angle_l	mtp_angle_l	lumbar_extension	lumbar_bending	lumbar_rotation
      0.90883333	     -4.45625513	     -0.95312501	     -4.10560300	     -0.17211631	      0.89084131	      0.35011906	     -9.52775287	      5.82803919	      3.57586387	     -9.99234570	     18.46054044	      5.73942794	      6.58997649	     33.43861470	     -1.78598879	     -8.09227306	    -19.73972757	      3.34616982	     -2.82849568	      1.95728172	     -3.60078997	      1.69136665	      9.35073418
      0.91300000	     -4.56278534	     -0.94780554	     -4.22909493	     -0.16626933	      0.88946475	      0.35012579	     -9.52285157	      5.76723216	      3.55968493	    -10.64058479	     18.75719665	      6.04868345	      6.77613245	     33.47374623	     -1.76199992	     -8.10656845	    -19.51875785	      3.41221065	     -2.77929799	      1.94458514	     -3.42326629	      1.64656796	      9.43638846
      0.91716667	     -4.67331997	     -0.93670331	     -4.34508160	     -0.16038519	      0.88812671	      0.35012468	     -9.49497622	      5.70143776	      3.53942752	    -11.32943194	     19.03232962	      6.33580595	      6.95923658	     33.50494621	     -1.73194352	     -8.12718686	    -19.38560058	      3.46465778	     -2.76517986	      1.94259444	     -3.22530625	      1.60622433	      9.49884986
      0.92133333	     -4.78889574	     -0.92184752	     -4.45071183	     -0.15450246	      0.88682754	      0.35011580	     -9.42631984	      5.63355942	      3.50252100	    -12.08784467	     19.26100641	      6.64331196	      7.15467749	     33.54191344	     -1.69325583	     -8.12332544	    -19.35071716	      3.49413145	     -2.79121468	      1.95064211	     -3.04156265	      1.52946128	      9.54793683
      0.92550000	     -4.90580790	     -0.89687926	     -4.54748432	     -0.14859962	      0.88557907	      0.35007934	     -9.32175491	      5.55211120	      3.43083612	    -12.91432563	     19.45542860	      6.96475813	      7.37481610	     33.57583304	     -1.64144798	     -8.12570321	    -19.39879994	      3.49310431	     -2.87643369	      1.96835134	     -2.84632687	      1.45417933	      9.58587039
      0.92966667	     -5.00094540	     -0.83336111	     -4.62527239	     -0.14262073	      0.88444101	      0.34998396	     -9.21656199	      5.41823961	      3.27080322	    -13.77578228	     19.48954246	      7.29965329	     10.22880679	     33.55598634	     -1.52659270	     -8.08735626	    -19.46858621	      3.40019422	     -3.17277179	      2.31635888	     -2.65653629	      1.32393157	      9.59695058
      0.93383333	     -5.12212035	     -0.82840146	     -4.70518136	     -0.13671217	      0.88328038	      0.34996558	     -9.05635400	      5.36918008	      3.24789338	    -14.70871118	     19.62423324	      7.53273110	     10.29490335	     33.61848260	     -1.50702199	     -8.12675538	    -19.73861022	      3.40684605	     -3.21303670	      2.33393592	     -2.46877261	      1.26145821	      9.58870002
      0.93800000	     -5.24356419	     -0.78422814	     -4.76954539	     -0.13075778	      0.88219925	      0.34986819	     -8.84447146	      5.26243484	      3.10554394	    -15.73285041	     19.67859319	      7.91673991	     10.42558408	     33.65087425	     -1.42442425	     -8.11323703	    -20.00975912	      3.32243866	     -3.41083995	      2.36634532	     -2.26056123	      1.15861786	      9.57960004
      0.94216667	     -5.31893128	     -0.71596232	     -4.80994011	     -0.12474243	      0.88125775	      0.34970367	     -8.65579152	      5.11534868	      2.88512632	    -16.80374249	     19.68522253	      8.37367857	     10.76831312	     33.62146712	     -1.29523624	     -8.07988567	    -20.32053679	      3.21664882	     -3.75569761	      2.45287499	     -2.09794561	      1.02240584	      9.55416346
      0.94633333	     -5.43814277	     -0.67557366	     -4.84813308	     -0.11877746	      0.88031500	      0.34956108	     -8.37662659	      5.01233791	      2.73565802	    -17.95580950	     19.61145906	      8.68617589	     11.08641795	     33.65383974	     -1.20640193	     -8.04227956	    -20.70955001	      3.09275382	     -4.00061053	      2.53143655	     -1.88746244	      0.93937115	      9.48562173
      0.95050000	     -5.54861477	     -0.60627349	     -4.90447777	     -0.11277706	      0.87946972	      0.34948529	     -8.07718671	      4.88013316	      2.65336831	    -19.15565931	     19.44891907	      8.93473542	     11.31106317	     33.67308975	     -1.11021253	     -8.06612019	    -21.15532364	      3.01805069	     -4.26333439	      2.58341687	     -1.68323547	      0.75484124	      9.38834531
      0.95466667	     -5.64201176	     -0.54026290	     -4.92513280	     -0.10677177	      0.87871095	      0.34930197	     -7.74761115	      4.73614548	      2.45733693	    -20.43833272	     19.22287967	      9.29971371	     11.58557267	     33.67792557	     -0.99021537	     -8.03883442	    -21.63905894	      2.93558333	     -4.57486793	      2.64348501	     -1.49314159	      0.61374844	      9.28599560
